<svg xmlns="http://www.w3.org/2000/svg" viewBox="0 0 446 444.51"><defs><style>.cls-1,.cls-5{fill:#f3bb30;}.cls-2,.cls-3,.cls-4{fill:#1d1d1b;}.cls-3{font-size:65.1px;}.cls-3,.cls-4{font-family:DINAlternate-Bold, DIN Alternate;font-weight:700;}.cls-4{font-size:25px;}.cls-5{opacity:0.1;}</style></defs><title>Middel 1</title><g id="Laag_2" data-name="Laag 2"><g id="Laag_1-2" data-name="Laag 1"><path class="cls-1" d="M136,186.78l86.33-86.3,86.37,86.37,50.2-50.24L222.29,0,85.72,136.57Z"/><path class="cls-1" d="M0,222.26,50.22,172l50.22,50.22L50.22,272.48Z"/><path class="cls-1" d="M136,257.73l86.33,86.33,86.37-86.36,50.24,50.17,0,0L222.29,444.51,85.72,308l-.07-.07Z"/><path class="cls-1" d="M344.05,222.28l50.22-50.23,50.23,50.23L394.27,272.5Z"/><path class="cls-1" d="M273.23,222.24l-50.94-51-37.67,37.67-4.35,4.32-8.92,8.92-.07.07.07.1,50.94,50.91,50.94-51,0,0Z"/><path class="cls-2" d="M160.31,185.8c55.79-26.13,105-16.51,141.36-14.54-36.81-14.46-35.41-24.35-81.25-35.11-38-8.91-76.83,2.22-95.45,19.16-47.56,43.26-31,61.76-104.14,144.25C75.76,284.78,110.14,209.3,160.31,185.8Z"/><path class="cls-2" d="M64.63,286.92S185.42,407.3,188.39,410.6s12.88-59.77,21.13-80.91,26.42-51.52,26.42-51.52l42.94,46.24s20.15,24.44,22.79,32.7,0,12.22,0,12.22,19.82,12.82,33.36,7.24,17.5-10.88,19.15-24.75-24.77-135.08-24.77-142.35S332.05,195.6,342,187s12.3-16.85,12.3-16.85l-3.38-1.65a114.38,114.38,0,0,1-26,9.58c-10.6,2.36-29.18-4.3-82.35-5s-88.51,22.79-107,37.32S64.63,286.92,64.63,286.92Z"/><path class="cls-2" d="M335.07,207s-.22,2.59-.17,3.45c.34,5.84,4.09,22.45,4.09,22.45l107-47.56L336.1,206.82Z"/><path class="cls-1" d="M228.39,338l-6.1,6.1L136,257.72,85.65,307.89l.07.07L222.29,444.49l26-26C249.92,391.38,240.19,363.47,228.39,338Z"/><text class="cls-3" transform="translate(90.25 93.87)">UNICORN</text><path class="cls-1" d="M273.23,222.24l-50.94-51-37.67,37.67-4.35,4.32-8.92,8.92-.07.07.07.1,50.94,50.91,50.94-51,0,0Z"/><text class="cls-4" transform="translate(95 308.57) rotate(45) scale(0.99 1)">WEBSOCKET API</text><path class="cls-2" d="M130.67,272.69l7.91,7.91c2,2,2.94,4,2.93,6a5.6,5.6,0,0,1-1.71,4l-.05.05a6.12,6.12,0,0,1-1.47,1.11,5.48,5.48,0,0,1-1.5.53,5.41,5.41,0,0,1-1.5.09,6.51,6.51,0,0,1-1.45-.27,8.14,8.14,0,0,1,.81,3.85,5.53,5.53,0,0,1-1.82,3.52l0,.05a6.22,6.22,0,0,1-2.5,1.59,5.57,5.57,0,0,1-2.75.18,8.61,8.61,0,0,1-2.89-1.14,15.59,15.59,0,0,1-2.91-2.33l-8.1-8.1Zm.22,14a5.52,5.52,0,0,0,2.4,1.54,2.1,2.1,0,0,0,2.11-.65l0-.05a2.09,2.09,0,0,0,.67-1.93,4.47,4.47,0,0,0-1.37-2.28l-3.7-3.7-3.61,3.61ZM125,294.58a5.09,5.09,0,0,0,2.41,1.5,2.17,2.17,0,0,0,2.11-.69l.05-.05a2.26,2.26,0,0,0,.69-2,4.92,4.92,0,0,0-1.61-2.63l-4.34-4.34-3.76,3.76Z"/><path class="cls-2" d="M149.86,291.88l3.75,3.75L136.55,312.7l-3.75-3.76Z"/><path class="cls-2" d="M159.29,301.31l3.46,3.47-2.5,18.49,10.5-10.5,3.71,3.71L157.4,333.54l-3.2-3.19,2.59-19.11-10.85,10.85-3.71-3.71Z"/><path class="cls-2" d="M185.94,327.72l3.46,3.46-9.87,24.49-3.92-3.92,2.27-5.38-7.22-7.22-5.39,2.27-3.82-3.83Zm-6.09,14,3.26-7.8-7.79,3.27Z"/><path class="cls-2" d="M200.65,342.67l3.46,3.46-2.51,18.49,10.5-10.5,3.71,3.71-17.06,17.06-3.2-3.19,2.59-19.11-10.85,10.85-3.7-3.71Z"/><path class="cls-2" d="M212,388.7a12.55,12.55,0,0,1-2.8-4.17,11.9,11.9,0,0,1,0-9.26,12.73,12.73,0,0,1,2.78-4.1l.05-.05a12.53,12.53,0,0,1,8.71-3.74,12,12,0,0,1,4.7.9,13,13,0,0,1,4.3,2.91,16.14,16.14,0,0,1,2,2.38A12.78,12.78,0,0,1,233,375.9a11.51,11.51,0,0,1,.66,2.31,14.22,14.22,0,0,1,.2,2.34l-5.14.37a13,13,0,0,0-.62-3.44,7.3,7.3,0,0,0-1.82-2.84,6.68,6.68,0,0,0-5.12-2,7.55,7.55,0,0,0-2.72.67A8,8,0,0,0,216,375l-.05.05a8.34,8.34,0,0,0-1.7,2.42,7.74,7.74,0,0,0-.69,2.72,6.6,6.6,0,0,0,2,5.14,7.28,7.28,0,0,0,3,1.94,14.12,14.12,0,0,0,3.48.55l0,4.8a17.75,17.75,0,0,1-2.63-.1,11.3,11.3,0,0,1-2.51-.58,11,11,0,0,1-2.45-1.23A16.34,16.34,0,0,1,212,388.7Z"/><path class="cls-2" d="M240.73,382.75l12.84,12.84-3.34,3.34-9.15-9.15-3.46,3.46,8.06,8.06-3.34,3.34-8.05-8.05-3.58,3.59,9.26,9.26-3.34,3.34-13-13Z"/><path class="cls-5" d="M100.44,222.28l-15.09-15.1c-11.95,22.44-24.13,42.52-39,61.45l3.87,3.87Z"/><path class="cls-5" d="M114.6,165.45l21.34,21.33L189.72,133C159.87,133.84,133.34,143,114.6,165.45Z"/></g></g></svg>