<svg xmlns="http://www.w3.org/2000/svg" viewBox="0 0 469.65 468.91"><defs><style>.cls-1{fill:#fff;}.cls-2,.cls-4{fill:#f3bb30;}.cls-3{fill:#1d1d1b;}.cls-4{opacity:0.1;}</style></defs><title>Middel 5</title><g id="Laag_2" data-name="Laag 2"><g id="Laag_1-2" data-name="Laag 1"><circle class="cls-1" cx="232.56" cy="234.46" r="232.56"/><rect class="cls-1" x="0.74" width="468.91" height="468.91"/><path class="cls-2" d="M147.48,199l86.33-86.3L320.18,199l50.21-50.24L233.81,12.18,97.24,148.75Z"/><path class="cls-2" d="M11.52,234.44l50.22-50.22L112,234.44,61.74,284.67Z"/><path class="cls-2" d="M147.48,269.91l86.33,86.34,86.37-86.37,50.24,50.17,0,0L233.81,456.69,97.24,320.15l-.07-.07Z"/><path class="cls-2" d="M355.57,234.46l50.23-50.23L456,234.46,405.8,284.68Z"/><path class="cls-2" d="M284.76,234.42l-50.95-51-37.67,37.67-4.35,4.32-8.92,8.92-.07.07.07.1,50.94,50.91,50.95-51,0,0Z"/><path class="cls-3" d="M171.83,198c55.79-26.12,105-16.51,141.36-14.54-36.81-14.46-35.41-24.34-81.25-35.11-38-8.91-76.83,2.23-95.45,19.16-47.55,43.27-31,61.76-104.14,144.25C87.28,297,121.66,221.48,171.83,198Z"/><path class="cls-3" d="M76.15,299.1S196.94,419.48,199.91,422.78s12.88-59.77,21.14-80.91,26.42-51.52,26.42-51.52l42.93,46.24s20.15,24.44,22.79,32.7,0,12.22,0,12.22,19.82,12.82,33.36,7.24,17.5-10.88,19.16-24.75-24.78-135.08-24.78-142.35,2.65-13.87,12.56-22.45,12.29-16.85,12.29-16.85l-3.38-1.65a114.15,114.15,0,0,1-26,9.58c-10.6,2.36-29.17-4.3-82.35-5s-88.51,22.79-107,37.33S76.15,299.1,76.15,299.1Z"/><path class="cls-3" d="M346.59,219.21s-.21,2.58-.16,3.44c.33,5.84,4.08,22.45,4.08,22.45l107-47.56L347.63,219Z"/><path class="cls-2" d="M239.91,350.13l-6.1,6.1L147.48,269.9,97.17,320.07l.07.07L233.81,456.67l26-26C261.44,403.56,251.71,375.65,239.91,350.13Z"/><path class="cls-3" d="M105.68,59.7h6.8V89.61q.06,4.74,2.65,7.22a8.66,8.66,0,0,0,6.51,2.61,8.84,8.84,0,0,0,6.56-2.61q2.53-2.47,2.59-7.22V59.7h6.8V90.35q-.12,7.31-4.59,11.6a16.54,16.54,0,0,1-22.64,0q-4.62-4.28-4.68-11.59Z"/><path class="cls-3" d="M147.51,59.7h6.41l20.33,33h.13V59.7h6.79v46.35h-6.44L154.43,73.1h-.12v33h-6.8Z"/><path class="cls-3" d="M192.05,59.7h6.8v46.35h-6.8Z"/><path class="cls-3" d="M239.12,93.1a17.48,17.48,0,0,1-5.64,9.9,15.71,15.71,0,0,1-10.14,3.43,16.13,16.13,0,0,1-14.06-8.33c-.33-.7-.63-1.37-.89-2a12.76,12.76,0,0,1-.62-2.48,79.79,79.79,0,0,1-.46-10.74,79.52,79.52,0,0,1,.46-10.81,13,13,0,0,1,1.51-4.42,15.8,15.8,0,0,1,5.23-5.72,15.07,15.07,0,0,1,8.84-2.61,14.9,14.9,0,0,1,10.59,4A17.62,17.62,0,0,1,239.12,73H231.9a10.3,10.3,0,0,0-3-4.78,8.72,8.72,0,0,0-5.55-1.94,9.13,9.13,0,0,0-4.14,1,8.53,8.53,0,0,0-2.83,2.39,7.76,7.76,0,0,0-1.76,3.85,57.35,57.35,0,0,0-.49,9.34,55.84,55.84,0,0,0,.49,9.26,7.77,7.77,0,0,0,1.76,3.92,8,8,0,0,0,2.84,2.33,7.8,7.8,0,0,0,4.13,1q5.74,0,8.58-6.34Z"/><path class="cls-3" d="M243.52,82.88A80.06,80.06,0,0,1,244,72a13,13,0,0,1,1.51-4.42,15.58,15.58,0,0,1,5.23-5.7,15.08,15.08,0,0,1,8.83-2.6,15.43,15.43,0,0,1,14,8.33,10.83,10.83,0,0,1,1.56,4.42,91.25,91.25,0,0,1,.4,10.81,91.56,91.56,0,0,1-.4,10.74,10.82,10.82,0,0,1-1.57,4.48,14.85,14.85,0,0,1-5.1,5.66,15.61,15.61,0,0,1-8.93,2.67,16.13,16.13,0,0,1-14.06-8.33c-.33-.7-.63-1.37-.9-2a13.6,13.6,0,0,1-.61-2.48A79.79,79.79,0,0,1,243.52,82.88Zm6.79,0a55.48,55.48,0,0,0,.5,9.26,7.77,7.77,0,0,0,1.76,3.92,8,8,0,0,0,2.83,2.33,7.81,7.81,0,0,0,4.14,1,8.18,8.18,0,0,0,4.22-1,7.54,7.54,0,0,0,2.71-2.33,8.08,8.08,0,0,0,1.82-3.92,59,59,0,0,0,.47-9.26,60.61,60.61,0,0,0-.47-9.34,8.09,8.09,0,0,0-1.82-3.85,8,8,0,0,0-2.71-2.39,9.55,9.55,0,0,0-4.22-1,9.1,9.1,0,0,0-4.14,1,8.43,8.43,0,0,0-2.83,2.39,7.76,7.76,0,0,0-1.76,3.85A57,57,0,0,0,250.31,82.88Z"/><path class="cls-3" d="M284.75,59.7h17.54a13.54,13.54,0,0,1,9.15,3q4.28,3.47,4.45,9.89-.12,9.44-8.67,12.84l10.4,20.57h-8.08l-9.29-19.81h-8.71v19.81h-6.79ZM291.54,80h10.31a7.16,7.16,0,0,0,7.63-7.4q-.06-3.63-2.26-5.26a7.66,7.66,0,0,0-5-1.43H291.54Z"/><path class="cls-3" d="M324.45,59.7h6.41l20.33,33h.12V59.7h6.8v46.35h-6.44L331.37,73.1h-.12v33h-6.8Z"/><path class="cls-2" d="M284.76,234.42l-50.95-51-37.67,37.67-4.35,4.32-8.92,8.92-.07.07.07.1,50.94,50.91,50.95-51,0,0Z"/><path class="cls-3" d="M119.33,308.39l1.93,1.93-7.05,10.84,0,0,11.29-6.61,1.32,1.33-6.61,11.28,0,0,10.85-7,1.93,1.93-15.6,9.57-1.53-1.53,6.78-11.38,0,0-11.38,6.77L109.76,324Z"/><path class="cls-3" d="M135,324l7.71,7.71-1.8,1.79L135,327.65l-3.6,3.6,5,5L134.73,338l-5-5-3.7,3.71,5.88,5.88-1.8,1.79-7.7-7.71Z"/><path class="cls-3" d="M144.7,333.76l4.68,4.67a5.17,5.17,0,0,1,1.74,3.61,4.74,4.74,0,0,1-1.54,3.34,4.22,4.22,0,0,1-1.84,1.13,3.51,3.51,0,0,1-1.19.1,6,6,0,0,1-1.45-.3l0,0a3.47,3.47,0,0,1,.42,2.57,5.28,5.28,0,0,1-1.35,2.3,5,5,0,0,1-3.56,1.6,4.45,4.45,0,0,1-3.37-1.38l-5.08-5.09Zm-5.17,8.82-3.79,3.8,2.82,2.82a2.69,2.69,0,0,0,2.07.91,2.95,2.95,0,0,0,2.65-2.65,2.72,2.72,0,0,0-.93-2.06Zm5.31-5.3-3.62,3.61,2.64,2.65a2.63,2.63,0,0,0,2,.92,2.46,2.46,0,0,0,1.75-.78,2.61,2.61,0,0,0,.81-1.78,2.83,2.83,0,0,0-1-2Z"/><path class="cls-3" d="M146,354.11a7.31,7.31,0,0,0,2.18,4.69q2.39,2.31,4.14.63,1.42-1.4.12-3.27c-.42-.55-.87-1.16-1.37-1.83a5.53,5.53,0,0,1-1.16-3.57,4.84,4.84,0,0,1,1.49-3.16,5,5,0,0,1,3.71-1.62,5.68,5.68,0,0,1,3.91,1.87,9.37,9.37,0,0,1,2.61,5.21l-2.59.55a7.53,7.53,0,0,0-2-4,3.1,3.1,0,0,0-1.84-1,2.34,2.34,0,0,0-2,.75,2,2,0,0,0-.58,1.4,3.16,3.16,0,0,0,.68,1.92c.27.39.65.9,1.15,1.55a5.23,5.23,0,0,1,1.24,3.78,5.14,5.14,0,0,1-1.55,3.15c-2.46,2.35-5.1,2.16-7.89-.57a9.42,9.42,0,0,1-2.89-6.32Z"/><path class="cls-3" d="M158.71,360.35a29.65,29.65,0,0,1,3.06-2.82,5.22,5.22,0,0,1,1.61-.8,6.13,6.13,0,0,1,3-.14,6.2,6.2,0,0,1,4.77,4.78,5.86,5.86,0,0,1-.18,2.92,4.23,4.23,0,0,1-.78,1.63,35.81,35.81,0,0,1-2.82,3,36.21,36.21,0,0,1-3,2.81,4.16,4.16,0,0,1-1.64.79,5.72,5.72,0,0,1-2.91.17,5.89,5.89,0,0,1-3.12-1.68A5.74,5.74,0,0,1,155,368a5.87,5.87,0,0,1,.13-2.94c.1-.28.2-.54.31-.78a5,5,0,0,1,.5-.84A32.2,32.2,0,0,1,158.71,360.35Zm1.82,1.83a22.23,22.23,0,0,0-2.38,2.64,3,3,0,0,0-.59,1.54,3.46,3.46,0,0,0,.95,2.79,3.07,3.07,0,0,0,1.42.85,2.89,2.89,0,0,0,1.36.1,3.2,3.2,0,0,0,1.56-.58,22.62,22.62,0,0,0,2.64-2.39,23.31,23.31,0,0,0,2.41-2.66,3.19,3.19,0,0,0,.56-1.53,3.25,3.25,0,0,0-.08-1.38,3.81,3.81,0,0,0-.87-1.41,3.5,3.5,0,0,0-1.38-.84,3.27,3.27,0,0,0-1.41-.11,3,3,0,0,0-1.52.57A23.14,23.14,0,0,0,160.53,362.18Z"/><path class="cls-3" d="M175.15,382.34a6.84,6.84,0,0,1-4.21,1.18,6,6,0,0,1-3.65-1.8,5.74,5.74,0,0,1-1.65-3.1,5.87,5.87,0,0,1,.13-2.94q.15-.42.3-.78a5.9,5.9,0,0,1,.51-.84,32.2,32.2,0,0,1,2.8-3,31.85,31.85,0,0,1,3.05-2.81,5.22,5.22,0,0,1,1.61-.8,5.93,5.93,0,0,1,3-.14,6.09,6.09,0,0,1,4.85,5.59,6.83,6.83,0,0,1-1.25,4L178.66,375a4,4,0,0,0,.48-2.11,3.33,3.33,0,0,0-1-2,3.39,3.39,0,0,0-1.38-.84,3.27,3.27,0,0,0-1.41-.11,3,3,0,0,0-1.52.57,22.19,22.19,0,0,0-2.67,2.41,21.45,21.45,0,0,0-2.38,2.64,3,3,0,0,0-.59,1.54,3,3,0,0,0,.13,1.4,2.92,2.92,0,0,0,.82,1.39,3.48,3.48,0,0,0,4,.58Z"/><path class="cls-3" d="M185.81,374.86l1.82,1.83-6.48,6.48,0,0,11.45-1.52,2.17,2.17L186,385l-3.35,11.89-2.17-2.17,2.86-9.44-4.44.2-3.83,3.84-1.83-1.83Z"/><path class="cls-3" d="M196.83,385.88l7.7,7.71-1.79,1.8-5.88-5.88-3.6,3.6,5,5-1.69,1.69-5-5-3.71,3.7,5.88,5.88-1.79,1.8-7.71-7.71Z"/><path class="cls-3" d="M206.92,399.36l-3.31-3.31,1.69-1.69,8.44,8.44-1.69,1.69-3.31-3.31-10.89,10.9L196,410.25Z"/><path class="cls-3" d="M215.91,424.51l-4.57-4.58-3.75,1.89-1.93-1.93,17-8.2,1.53,1.53-8.2,17L214,428.26Zm1.17-2.21,3.76-7.25,0,0-7.25,3.76Z"/><path class="cls-3" d="M230.17,419.23l4.37,4.37a9.21,9.21,0,0,1,1.24,1.51,5.25,5.25,0,0,1,.6,2.09,4.29,4.29,0,0,1-.28,2.13,5.8,5.8,0,0,1-1.43,2.17,5.55,5.55,0,0,1-3.49,1.6,4.94,4.94,0,0,1-4.07-1.59l-2.79-2.78-4.91,4.91-1.83-1.83Zm-4,7.7,2.71,2.71a2.68,2.68,0,0,0,2.19.88,3.12,3.12,0,0,0,1.88-.9,3.53,3.53,0,0,0,.86-1.27,2.1,2.1,0,0,0,0-1.19,3.22,3.22,0,0,0-1-1.67l-2.65-2.64Z"/><path class="cls-3" d="M240.54,429.6l1.83,1.82L229.78,444,228,442.18Z"/><path class="cls-3" d="M142.19,284.87l7.91,7.91c2,2,2.94,4,2.93,6a5.55,5.55,0,0,1-1.71,4l0,.05A6.12,6.12,0,0,1,149.8,304a5.55,5.55,0,0,1-3,.62,6.42,6.42,0,0,1-1.44-.27,8.13,8.13,0,0,1,.8,3.85,5.53,5.53,0,0,1-1.82,3.52l-.05.05a6.19,6.19,0,0,1-2.49,1.59,5.62,5.62,0,0,1-2.76.18,8.69,8.69,0,0,1-2.89-1.14,15.59,15.59,0,0,1-2.91-2.33l-8.1-8.1Zm.22,14a5.52,5.52,0,0,0,2.4,1.54,2.08,2.08,0,0,0,2.11-.65l.05,0a2.11,2.11,0,0,0,.67-1.93,4.49,4.49,0,0,0-1.38-2.28l-3.7-3.7L139,295.43Zm-5.87,7.87a5.11,5.11,0,0,0,2.4,1.51,2.2,2.2,0,0,0,2.11-.7l0-.05a2.26,2.26,0,0,0,.69-2,4.85,4.85,0,0,0-1.61-2.63l-4.34-4.34-3.76,3.76Z"/><path class="cls-3" d="M161.38,304.06l3.75,3.76-17.06,17.06-3.75-3.76Z"/><path class="cls-3" d="M170.81,313.49l3.47,3.47-2.51,18.5,10.5-10.5,3.71,3.7-17.06,17.06-3.2-3.19,2.59-19.11-10.85,10.85-3.71-3.71Z"/><path class="cls-3" d="M197.47,339.9l3.45,3.46-9.87,24.49-3.92-3.92,2.27-5.38-7.22-7.22-5.38,2.27L173,349.77Zm-6.1,14,3.27-7.8-7.8,3.27Z"/><path class="cls-3" d="M212.17,354.85l3.46,3.46-2.51,18.5,10.5-10.5,3.71,3.7-17.06,17.06-3.2-3.19,2.59-19.11-10.85,10.85-3.7-3.71Z"/><path class="cls-3" d="M223.48,400.88a12.58,12.58,0,0,1-2.81-4.17,12,12,0,0,1,.05-9.26,12.73,12.73,0,0,1,2.78-4.1l.05,0a12.5,12.5,0,0,1,8.71-3.75,12,12,0,0,1,4.7.9,12.89,12.89,0,0,1,4.3,2.91,15.54,15.54,0,0,1,2,2.38,12.78,12.78,0,0,1,1.26,2.33,10.33,10.33,0,0,1,.66,2.31,14.25,14.25,0,0,1,.2,2.35l-5.14.36a13,13,0,0,0-.62-3.44,7.3,7.3,0,0,0-1.82-2.84,6.67,6.67,0,0,0-5.12-2,7.55,7.55,0,0,0-2.72.67,8.34,8.34,0,0,0-2.42,1.7l-.05.05a8.34,8.34,0,0,0-1.7,2.42,7.78,7.78,0,0,0-.68,2.72,6.62,6.62,0,0,0,2,5.14,7.31,7.31,0,0,0,3,1.94,13.59,13.59,0,0,0,3.47.55l0,4.8a17.8,17.8,0,0,1-2.63-.1,11.19,11.19,0,0,1-5-1.81A15.78,15.78,0,0,1,223.48,400.88Z"/><path class="cls-3" d="M252.25,394.93l12.84,12.84-3.34,3.34L252.6,402l-3.46,3.46,8.06,8.06-3.34,3.34-8-8-3.59,3.58,9.27,9.26L248.16,425l-13-13Z"/><path class="cls-4" d="M112,234.46l-15.1-15.1c-12,22.44-24.13,42.52-39,61.45l3.86,3.87Z"/><path class="cls-4" d="M126.12,177.63,147.46,199l53.78-53.74C171.39,146,144.86,155.16,126.12,177.63Z"/></g></g></svg>